<svg xmlns="http://www.w3.org/2000/svg" viewBox="0 0 17.5 17.5"><defs><style>.cls-1{fill-rule:evenodd;}</style></defs><g id="Layer_2" data-name="Layer 2"><g id="Layer_1-2" data-name="Layer 1"><path class="cls-1" d="M11,1c-.29.3-.29.77-.29,1.71s0,1.41.29,1.71.77.29,1.71.29h2c.94,0,1.41,0,1.71-.29s.29-.77.29-1.71,0-1.41-.29-1.71S15.69.75,14.75.75h-2C11.81.75,11.34.75,11,1ZM1,13c-.29.3-.29.77-.29,1.71s0,1.41.29,1.71.77.29,1.71.29h2c.94,0,1.41,0,1.71-.29s.29-.77.29-1.71,0-1.41-.29-1.71-.77-.29-1.71-.29h-2C1.81,12.75,1.34,12.75,1,13Zm9.71-2.29c0-.94,0-1.41.29-1.71s.77-.29,1.71-.29h2c.94,0,1.41,0,1.71.29s.29.77.29,1.71v4c0,.94,0,1.41-.29,1.71s-.77.29-1.71.29h-2c-.94,0-1.41,0-1.71-.29s-.29-.77-.29-1.71ZM1,1c-.29.3-.29.77-.29,1.71v4c0,.94,0,1.41.29,1.71s.77.29,1.71.29h2c.94,0,1.41,0,1.71-.29s.29-.77.29-1.71v-4c0-.94,0-1.41-.29-1.71S5.69.75,4.75.75h-2C1.81.75,1.34.75,1,1Z"/><path class="cls-1" d="M1.57,1.57h0a.49.49,0,0,1,.16,0,8.32,8.32,0,0,1,1,0h2a8.32,8.32,0,0,1,1,0,.49.49,0,0,1,.16,0h0a.49.49,0,0,1,0,.16,8.32,8.32,0,0,1,0,1v4a8.32,8.32,0,0,1,0,1,.49.49,0,0,1,0,.16h0a.49.49,0,0,1-.16,0,8.32,8.32,0,0,1-1,0h-2a8.32,8.32,0,0,1-1,0,.49.49,0,0,1-.16,0h0a.49.49,0,0,1,0-.16,8.32,8.32,0,0,1,0-1v-4a8.32,8.32,0,0,1,0-1,.49.49,0,0,1,0-.16h0ZM2.71,0H4.79A10.22,10.22,0,0,1,6,0,1.76,1.76,0,0,1,7,.51a1.76,1.76,0,0,1,.47,1,10.22,10.22,0,0,1,0,1.16V6.79A10.22,10.22,0,0,1,7.46,8,1.76,1.76,0,0,1,7,9a1.76,1.76,0,0,1-1,.47,10.22,10.22,0,0,1-1.16,0H2.71a10.22,10.22,0,0,1-1.16,0A1.76,1.76,0,0,1,.51,9,1.76,1.76,0,0,1,0,8,10.22,10.22,0,0,1,0,6.79V2.71A10.22,10.22,0,0,1,0,1.55a1.76,1.76,0,0,1,.47-1,1.76,1.76,0,0,1,1-.47A10.22,10.22,0,0,1,2.71,0Zm8.87,1.57h0a.49.49,0,0,0,0,.16,8.32,8.32,0,0,0,0,1,8.32,8.32,0,0,0,0,1,.49.49,0,0,0,0,.16h0a.49.49,0,0,0,.16,0,8.32,8.32,0,0,0,1,0h2a8.32,8.32,0,0,0,1,0,.49.49,0,0,0,.16,0h0a.49.49,0,0,0,0-.16,8.32,8.32,0,0,0,0-1,8.32,8.32,0,0,0,0-1,.49.49,0,0,0,0-.16h0a.49.49,0,0,0-.16,0,8.32,8.32,0,0,0-1,0h-2a8.32,8.32,0,0,0-1,0,.49.49,0,0,0-.16,0ZM12.71,0h2.08A10.22,10.22,0,0,1,16,0a1.76,1.76,0,0,1,1,.47,1.76,1.76,0,0,1,.47,1,10.22,10.22,0,0,1,0,1.16v.08a10.22,10.22,0,0,1,0,1.16A1.76,1.76,0,0,1,17,5a1.76,1.76,0,0,1-1,.47,10.22,10.22,0,0,1-1.16,0H12.71a10.22,10.22,0,0,1-1.16,0,1.76,1.76,0,0,1-1-.47A1.76,1.76,0,0,1,10,4a10.22,10.22,0,0,1,0-1.16V2.71a10.22,10.22,0,0,1,0-1.16,1.76,1.76,0,0,1,.47-1,1.76,1.76,0,0,1,1-.47A10.22,10.22,0,0,1,12.71,0Zm0,8h2.08A10.22,10.22,0,0,1,16,8a1.62,1.62,0,0,1,1.51,1.51,10.22,10.22,0,0,1,0,1.16v4.08a10.22,10.22,0,0,1,0,1.16A1.62,1.62,0,0,1,16,17.46a10.22,10.22,0,0,1-1.16,0H12.71a10.22,10.22,0,0,1-1.16,0A1.62,1.62,0,0,1,10,16a10.22,10.22,0,0,1,0-1.16V10.71a10.22,10.22,0,0,1,0-1.16A1.62,1.62,0,0,1,11.55,8,10.22,10.22,0,0,1,12.71,8ZM11.58,9.57h0a.49.49,0,0,0,0,.16,8.32,8.32,0,0,0,0,1v4a8.32,8.32,0,0,0,0,1,.49.49,0,0,0,0,.16h0a.49.49,0,0,0,.16,0,8.32,8.32,0,0,0,1,0h2a8.32,8.32,0,0,0,1,0,.49.49,0,0,0,.16,0h0a.49.49,0,0,0,0-.16,8.32,8.32,0,0,0,0-1v-4a8.32,8.32,0,0,0,0-1,.49.49,0,0,0,0-.16h0a.49.49,0,0,0-.16,0,8.32,8.32,0,0,0-1,0h-2a8.32,8.32,0,0,0-1,0,.49.49,0,0,0-.16,0Zm-10,4h0a.49.49,0,0,0,0,.16,8.32,8.32,0,0,0,0,1,8.32,8.32,0,0,0,0,1,.49.49,0,0,0,0,.16h0a.49.49,0,0,0,.16,0,8.32,8.32,0,0,0,1,0h2a8.32,8.32,0,0,0,1,0,.49.49,0,0,0,.16,0h0a.49.49,0,0,0,0-.16,8.32,8.32,0,0,0,0-1,8.32,8.32,0,0,0,0-1,.49.49,0,0,0,0-.16h0a.49.49,0,0,0-.16,0,8.32,8.32,0,0,0-1,0h-2a8.32,8.32,0,0,0-1,0,.49.49,0,0,0-.16,0ZM2.71,12H4.79A10.22,10.22,0,0,1,6,12a1.76,1.76,0,0,1,1,.47,1.76,1.76,0,0,1,.47,1,10.22,10.22,0,0,1,0,1.16v.08a10.22,10.22,0,0,1,0,1.16A1.76,1.76,0,0,1,7,17a1.76,1.76,0,0,1-1,.47,10.22,10.22,0,0,1-1.16,0H2.71a10.22,10.22,0,0,1-1.16,0,1.76,1.76,0,0,1-1-.47A1.76,1.76,0,0,1,0,16a10.22,10.22,0,0,1,0-1.16v-.08a10.22,10.22,0,0,1,0-1.16,1.76,1.76,0,0,1,.47-1,1.76,1.76,0,0,1,1-.47A10.22,10.22,0,0,1,2.71,12Z"/></g></g></svg>