<svg xmlns="http://www.w3.org/2000/svg" viewBox="0 0 410.05 512"><defs><style>.cls-1{fill:#0b2fbd;}.cls-2{fill:#e8d5b5;}</style></defs><g id="Layer_2" data-name="Layer 2"><g id="Layer_1-2" data-name="Layer 1"><path class="cls-1" d="M385.4,512H46.84a24.65,24.65,0,0,1-24.65-24.65V24.65A24.65,24.65,0,0,1,46.84,0H385.4a24.65,24.65,0,0,1,24.65,24.65v462.7A24.65,24.65,0,0,1,385.4,512Z"/><path class="cls-2" d="M273.64,173.83h-115a24.66,24.66,0,1,1,0-49.31h115a24.66,24.66,0,0,1,0,49.31Z"/><path class="cls-2" d="M69,136H24.65a24.65,24.65,0,0,1,0-49.3H69A24.65,24.65,0,1,1,69,136Z"/><path class="cls-2" d="M69,232.45H24.65a24.65,24.65,0,0,1,0-49.3H69a24.65,24.65,0,1,1,0,49.3Z"/><path class="cls-2" d="M69,328.86H24.65a24.66,24.66,0,0,1,0-49.31H69a24.66,24.66,0,0,1,0,49.31Z"/><path class="cls-2" d="M69,425.26H24.65a24.65,24.65,0,0,1,0-49.3H69a24.65,24.65,0,0,1,0,49.3Z"/></g></g></svg>